<svg width="63" height="65" viewBox="0 0 63 65" fill="none" xmlns="http://www.w3.org/2000/svg">
<path d="M43.1341 62.1987L45.9143 64.5264L48.6945 62.1987V55.1512H43.1988M48.8885 47.4572H42.2936V45.7761L27.2287 64.2677H35.1814L43.0694 54.3754H48.8885V47.4572ZM43.1341 46.6813H48.6299V40.7329L51.5394 35.819H39.8366L43.0694 40.7329C43.1341 40.7329 43.1341 46.6813 43.1341 46.6813ZM26.2589 25.9913H11V54.8926H18.1768L34.7288 35.1078L26.2589 25.9913ZM20.7631 36.013H18.3708V38.5993H16.3018V36.013H13.9095V33.75H16.3018V31.1638H18.3708V33.75H20.7631V36.013ZM32.5305 53.5995L33.6943 49.1382H35.2461V36.7889L19.082 56.0564V64.5264L27.164 54.8926H30.9141C30.8494 54.8926 32.1426 55.0866 32.5305 53.5995ZM33.371 43.1252L32.2072 44.4183L31.0434 43.1252H33.371Z" fill="#2582A1"/>
<path d="M42.0996 9.18061L41.9056 9.11595C32.5952 6.52971 32.0132 1.6805 32.2719 -0.00055713C31.6253 1.93913 31.69 5.88315 32.3365 8.14611C33.4357 9.37458 37.1857 11.1203 40.7418 11.5082L41.9056 11.7022C51.2808 13.6419 52.0567 21.9825 48.6945 25.9912C49.0825 25.2153 53.0265 16.5514 43.3281 14.741C42.8755 14.6764 42.4229 14.5471 41.9703 14.4824C35.1167 13.1246 34.5348 11.9608 34.2116 11.8962C33.9529 13.1893 35.634 20.1075 41.9703 20.948H42.035C47.9833 21.7239 48.5652 24.9567 48.6299 25.9912C50.3756 24.6334 51.4748 22.2411 51.5394 19.5902V18.879C51.4101 14.8704 48.7592 10.4737 42.0996 9.18061Z" fill="#FDB931"/>
</svg>
